<?xml version="1.0" encoding="UTF-8"?>
<svg version="1.1" xmlns="http://www.w3.org/2000/svg" width="250" height="106">
<path d="M0 0 C4.62 0 9.24 0 14 0 C14 27.39 14 54.78 14 83 C9.38 83 4.76 83 0 83 C0 55.61 0 28.22 0 0 Z " fill="#FFFFFF" transform="translate(47,11)"/>
<path d="M0 0 C3.63 0 7.26 0 11 0 C11 4.95 11 9.9 11 15 C16.28 15 21.56 15 27 15 C27 10.05 27 5.1 27 0 C30.63 0 34.26 0 38 0 C38 13.53 38 27.06 38 41 C34.37 41 30.74 41 27 41 C27 35.39 27 29.78 27 24 C21.72 24 16.44 24 11 24 C11 29.61 11 35.22 11 41 C7.37 41 3.74 41 0 41 C0 27.47 0 13.94 0 0 Z " fill="#FFFFFF" transform="translate(202,53)"/>
<path d="M0 0 C4.62 0 9.24 0 14 0 C14 23.1 14 46.2 14 70 C9.38 70 4.76 70 0 70 C0 46.9 0 23.8 0 0 Z " fill="#FFFFFF" transform="translate(66,24)"/>
<path d="M0 0 C2.5 1.9375 2.5 1.9375 4 4 C4.0625 6.0625 4.0625 6.0625 3 8 C0.6875 9.875 0.6875 9.875 -2 11 C-4 10.3125 -4 10.3125 -6 9 C-8.96470931 7.6984203 -10.73381035 7 -14 7 C-13.42171273 9.46173609 -13.42171273 9.46173609 -12 12 C-9.30180398 13.54086826 -9.30180398 13.54086826 -6.125 14.5625 C-1.79401433 16.10015953 1.04434659 17.41884785 4 21 C5.73734118 26.21202354 5.71910635 30.34292885 3.5625 35.3125 C-0.49130564 39.56405226 -4.76951869 40.8834112 -10.59765625 41.09375 C-16.05772729 40.76433395 -19.79764319 39.70207623 -24 36 C-25.51853806 34.05911854 -26.7410519 32.13052756 -28 30 C-23.375 25.125 -23.375 25.125 -20 24 C-19.38125 24.804375 -18.7625 25.60875 -18.125 26.4375 C-16.25835959 29.03874519 -16.25835959 29.03874519 -14 30 C-12.00039988 30.039992 -9.99952758 30.04346799 -8 30 C-7.67 29.01 -7.34 28.02 -7 27 C-8.49136451 24.01727099 -10.66722566 23.87784427 -13.75 22.75 C-19.13654826 20.56591801 -22.03381053 19.01183738 -25 14 C-26.33617905 10.07497403 -26.09328369 8.3057632 -24.875 4.3125 C-22.5427222 0.19214256 -20.46845772 -1.09489884 -16.125 -2.6875 C-9.93769757 -3.59739742 -5.55419601 -2.93429223 0 0 Z " fill="#FFFFFF" transform="translate(149,55)"/>
<path d="M0 0 C0.66 0 1.32 0 2 0 C4.99350439 5.96174207 7.98392693 11.92502232 10.97216797 17.8894043 C11.99000551 19.92003736 13.00855931 21.95031156 14.02783203 23.98022461 C15.48917171 26.89083264 16.94796651 29.80270355 18.40625 32.71484375 C18.86559937 33.6283812 19.32494873 34.54191864 19.79821777 35.48313904 C20.21865356 36.32393509 20.63908936 37.16473114 21.07226562 38.03100586 C21.44532837 38.77491074 21.81839111 39.51881561 22.20275879 40.28526306 C23 42 23 42 23 43 C18.71 43 14.42 43 10 43 C9.01 41.02 8.02 39.04 7 37 C3.04 37 -0.92 37 -5 37 C-5.99 38.98 -6.98 40.96 -8 43 C-12.29 43 -16.58 43 -21 43 C-14.24769542 28.54051948 -7.18416295 14.2494131 0 0 Z M0 20 C-1.4606285 22.64738916 -2 23.89448334 -2 27 C-0.02 27 1.96 27 4 27 C3.34 24.69 2.68 22.38 2 20 C1.34 20 0.68 20 0 20 Z " fill="#FFFFFF" transform="translate(176,51)"/>
<path d="M0 0 C4.62 0 9.24 0 14 0 C14 18.15 14 36.3 14 55 C9.38 55 4.76 55 0 55 C0 36.85 0 18.7 0 0 Z " fill="#FFFFFF" transform="translate(84,39)"/>
<path d="M0 0 C4.62 0 9.24 0 14 0 C14 18.15 14 36.3 14 55 C9.38 55 4.76 55 0 55 C0 36.85 0 18.7 0 0 Z " fill="#FFFFFF" transform="translate(29,39)"/>
<path d="M0 0 C4.62 0 9.24 0 14 0 C14 13.53 14 27.06 14 41 C9.38 41 4.76 41 0 41 C0 27.47 0 13.94 0 0 Z " fill="#FFFFFF" transform="translate(103,53)"/>
<path d="M0 0 C4.29 0 8.58 0 13 0 C13 13.53 13 27.06 13 41 C8.71 41 4.42 41 0 41 C0 27.47 0 13.94 0 0 Z " fill="#FFFFFF" transform="translate(11,53)"/>
</svg>
