<?xml version="1.0" standalone="no"?>
<!DOCTYPE svg PUBLIC "-//W3C//DTD SVG 20010904//EN"
 "http://www.w3.org/TR/2001/REC-SVG-20010904/DTD/svg10.dtd">
<svg version="1.0" xmlns="http://www.w3.org/2000/svg"
 width="250.000000pt" height="106.000000pt" viewBox="0 0 250.000000 106.000000"
 preserveAspectRatio="xMidYMid meet">

<g transform="translate(0.000000,106.000000) scale(0.100000,-0.100000)"
fill="#000000" stroke="none">
<path d="M480 535 l0 -415 65 0 65 0 -1 415 0 415 -64 0 -65 0 0 -415z"/>
<path d="M660 745 l0 -65 65 0 65 0 0 65 0 65 -65 0 -65 0 0 -65z"/>
<path d="M300 395 l0 -275 66 0 67 0 -7 92 c-3 50 -6 174 -6 275 l0 183 -60 0
-60 0 0 -275z"/>
<path d="M661 395 l0 -275 65 0 64 0 0 275 0 275 -65 0 -64 0 0 -275z"/>
<path d="M850 395 l0 -275 64 0 65 0 0 275 0 275 -64 0 -65 0 0 -275z"/>
<path d="M1662 335 c-56 -113 -102 -207 -102 -210 0 -3 24 -5 53 -5 53 0 54 1
72 40 l18 40 63 0 64 0 20 -40 c20 -39 21 -40 75 -40 l55 0 -13 33 c-27 62
-192 387 -197 387 -3 0 -51 -92 -108 -205z m132 -15 c9 -22 16 -43 16 -45 0
-3 -18 -5 -40 -5 -22 0 -40 4 -40 10 0 15 33 80 41 80 4 0 14 -18 23 -40z"/>
<path d="M110 325 l1 -205 64 0 64 0 1 205 0 205 -65 0 -65 0 0 -205z"/>
<path d="M1036 522 c-2 -4 -5 -96 -5 -205 l0 -197 65 0 64 0 0 205 0 205 -59
0 c-33 0 -62 -4 -65 -8z"/>
<path d="M1293 510 c-39 -23 -53 -48 -53 -93 0 -47 32 -84 102 -117 72 -34 88
-47 88 -71 0 -49 -91 -43 -128 8 l-19 26 -32 -22 c-37 -27 -38 -31 -6 -69 49
-58 144 -79 219 -48 46 19 66 51 66 108 0 62 -33 99 -115 132 -68 27 -86 46
-66 70 19 22 53 20 86 -6 27 -21 28 -21 61 -3 32 17 33 20 21 39 -8 12 -29 31
-47 44 -43 29 -131 31 -177 2z"/>
<path d="M2027 523 c-4 -3 -7 -96 -7 -205 l0 -198 50 0 50 0 0 85 0 85 90 0
90 0 0 -85 0 -85 45 0 45 0 0 205 0 205 -45 0 -45 0 0 -75 0 -75 -90 0 -90 0
0 75 0 75 -43 0 c-24 0 -47 -3 -50 -7z"/>
</g>
</svg>
